ply
format ascii 1.0
comment Created by Blender 2.83.5 - www.blender.org, source file: ''
element vertex 412
property float x
property float y
property float z
property float nx
property float ny
property float nz
element face 160
property list uchar uint vertex_indices
end_header
-2.021998 -56.785057 -1.732051 0.000000 -1.000000 0.000000
-8.021998 -56.785057 -1.732051 0.000000 -1.000000 0.000000
-5.021998 -56.785057 -3.464102 0.000000 -1.000000 0.000000
-2.021998 -56.785057 1.732051 0.000000 -1.000000 0.000000
-8.021998 -56.785057 1.732051 0.000000 -1.000000 0.000000
-5.021998 -56.785057 3.464102 0.000000 -1.000000 0.000000
-2.021998 27.214943 -1.732051 1.000000 -0.000000 0.000000
-2.021998 27.214943 1.732051 1.000000 -0.000000 0.000000
-2.021998 -56.785057 1.732051 1.000000 -0.000000 0.000000
-2.021998 -56.785057 -1.732051 1.000000 -0.000000 0.000000
-2.021998 27.214943 1.732051 0.500000 -0.000000 0.866025
-5.021998 27.214943 3.464102 0.500000 -0.000000 0.866025
-5.021998 -56.785057 3.464102 0.500000 -0.000000 0.866025
-2.021998 -56.785057 1.732051 0.500000 0.000000 0.866025
-5.021998 27.214943 3.464102 -0.500000 0.000000 0.866025
-8.021998 27.214943 1.732051 -0.500000 0.000000 0.866025
-8.021998 -56.785057 1.732051 -0.500000 0.000000 0.866025
-5.021998 -56.785057 3.464102 -0.500000 0.000000 0.866025
-8.021998 27.214943 1.732051 -1.000000 0.000000 0.000000
-8.021998 27.214943 -1.732051 -1.000000 0.000000 0.000000
-8.021998 -56.785057 -1.732051 -1.000000 0.000000 0.000000
-8.021998 -56.785057 1.732051 -1.000000 0.000000 0.000000
-8.021998 27.214943 -1.732051 -0.500000 0.000000 -0.866025
-5.021998 27.214943 -3.464102 -0.500000 0.000000 -0.866025
-5.021998 -56.785057 -3.464102 -0.500000 0.000000 -0.866025
-8.021998 -56.785057 -1.732051 -0.500000 0.000000 -0.866025
-5.021998 27.214943 -3.464102 0.500000 0.000000 -0.866025
-2.021998 27.214943 -1.732051 0.500000 0.000000 -0.866025
-2.021998 -56.785057 -1.732051 0.500000 0.000000 -0.866025
-5.021998 -56.785057 -3.464102 0.500000 0.000000 -0.866025
-5.021998 27.214943 -3.464102 0.498439 -0.078945 -0.863322
-3.252809 28.914536 -2.598076 0.498439 -0.078945 -0.863322
-2.021998 27.214943 -1.732051 0.498439 -0.078945 -0.863322
-2.021998 27.214943 -1.732051 0.519176 -0.058497 -0.852663
-3.252809 28.914536 -2.598076 0.519176 -0.058497 -0.852663
-1.921710 28.105026 -1.732051 0.519176 -0.058497 -0.852663
-1.921710 28.105026 -1.732051 0.466389 -0.163196 -0.869396
-3.252809 28.914536 -2.598076 0.466389 -0.163196 -0.869396
-1.625874 28.950478 -1.732051 0.466389 -0.163196 -0.869396
-4.846494 28.772591 -3.464102 0.480486 -0.054138 -0.875330
-3.252809 28.914536 -2.598076 0.480486 -0.054138 -0.875330
-5.021998 27.214943 -3.464102 0.480486 -0.054138 -0.875330
-4.328781 30.252129 -3.464102 0.482182 -0.168723 -0.859670
-3.252809 28.914536 -2.598076 0.482182 -0.168723 -0.859670
-4.846494 28.772591 -3.464102 0.482182 -0.168723 -0.859670
-1.625874 28.950478 -1.732051 0.420689 -0.264337 -0.867840
-2.471592 30.447762 -2.598076 0.420689 -0.264337 -0.867840
-1.149324 29.708900 -1.732051 0.420689 -0.264337 -0.867840
-3.494819 31.579369 -3.464102 0.430131 -0.270270 -0.861361
-2.471592 30.447762 -2.598076 0.430131 -0.270270 -0.861361
-4.328781 30.252129 -3.464102 0.430131 -0.270270 -0.861361
-3.252809 28.914536 -2.598076 0.460784 -0.234781 -0.855895
-2.471592 30.447762 -2.598076 0.460784 -0.234781 -0.855895
-1.625874 28.950478 -1.732051 0.460784 -0.234781 -0.855895
-4.328781 30.252129 -3.464102 0.431208 -0.219711 -0.875092
-2.471592 30.447762 -2.598076 0.431208 -0.219711 -0.875092
-3.252809 28.914536 -2.598076 0.431208 -0.219711 -0.875092
-1.149324 29.708900 -1.732051 0.361214 -0.361212 -0.859680
-1.254817 31.664536 -2.598076 0.361214 -0.361212 -0.859680
-0.515958 30.342270 -1.732051 0.361214 -0.361212 -0.859680
-0.515958 30.342270 -1.732051 0.264336 -0.420690 -0.867840
-1.254817 31.664536 -2.598076 0.264336 -0.420690 -0.867840
0.242466 30.818817 -1.732051 0.264336 -0.420690 -0.867840
-2.386427 32.687767 -3.464102 0.349405 -0.349403 -0.869387
-1.254817 31.664536 -2.598076 0.349405 -0.349403 -0.869387
-3.494819 31.579369 -3.464102 0.349405 -0.349403 -0.869387
-1.059185 33.521729 -3.464102 0.270268 -0.430130 -0.861361
-1.254817 31.664536 -2.598076 0.270268 -0.430130 -0.861361
-2.386427 32.687767 -3.464102 0.270268 -0.430130 -0.861361
-2.471592 30.447762 -2.598076 0.361212 -0.361213 -0.859681
-1.254817 31.664536 -2.598076 0.361212 -0.361213 -0.859681
-1.149324 29.708900 -1.732051 0.361212 -0.361213 -0.859681
-3.494819 31.579369 -3.464102 0.349405 -0.349405 -0.869386
-1.254817 31.664536 -2.598076 0.349405 -0.349405 -0.869386
-2.471592 30.447762 -2.598076 0.349405 -0.349405 -0.869386
0.242466 30.818817 -1.732051 0.163197 -0.466388 -0.869396
0.278408 32.445755 -2.598076 0.163197 -0.466388 -0.869396
1.087918 31.114655 -1.732051 0.163197 -0.466388 -0.869396
1.087918 31.114655 -1.732051 0.058497 -0.519175 -0.852664
0.278408 32.445755 -2.598076 0.058497 -0.519175 -0.852664
1.978002 31.214943 -1.732051 0.058497 -0.519175 -0.852664
1.978002 31.214943 -1.732051 0.078945 -0.498440 -0.863323
0.278408 32.445755 -2.598076 0.078945 -0.498440 -0.863323
1.978002 34.214943 -3.464102 0.078945 -0.498440 -0.863323
0.420355 34.039436 -3.464102 0.168721 -0.482183 -0.859670
0.278408 32.445755 -2.598076 0.168721 -0.482183 -0.859670
-1.059185 33.521729 -3.464102 0.168721 -0.482183 -0.859670
1.978002 34.214943 -3.464102 0.054138 -0.480487 -0.875329
0.278408 32.445755 -2.598076 0.054138 -0.480487 -0.875329
0.420355 34.039436 -3.464102 0.054138 -0.480487 -0.875329
-1.254817 31.664536 -2.598076 0.234781 -0.460783 -0.855895
0.278408 32.445755 -2.598076 0.234781 -0.460783 -0.855895
0.242466 30.818817 -1.732051 0.234781 -0.460783 -0.855895
-1.059185 33.521729 -3.464102 0.219712 -0.431207 -0.875093
0.278408 32.445755 -2.598076 0.219712 -0.431207 -0.875093
-1.254817 31.664536 -2.598076 0.219712 -0.431207 -0.875093
-2.021998 27.214943 -1.732051 0.993712 -0.111965 0.000000
-1.921710 28.105026 -1.732051 0.993712 -0.111965 0.000000
-2.021998 27.214943 1.732051 0.993712 -0.111965 0.000000
-1.921710 28.105026 1.732051 0.993712 -0.111965 0.000000
-1.921710 28.105026 1.732051 0.943883 -0.330279 0.000000
-1.625874 28.950478 -1.732051 0.943883 -0.330279 0.000000
-1.625874 28.950478 1.732051 0.943883 -0.330279 0.000000
-1.921710 28.105026 -1.732051 0.943883 -0.330279 0.000000
-1.625874 28.950478 1.732051 0.846724 -0.532033 0.000000
-1.149324 29.708900 -1.732051 0.846724 -0.532033 0.000000
-1.149324 29.708900 1.732051 0.846724 -0.532033 0.000000
-1.625874 28.950478 -1.732051 0.846724 -0.532033 0.000000
-1.149324 29.708900 1.732051 0.707108 -0.707105 0.000000
-0.515958 30.342270 -1.732051 0.707108 -0.707105 0.000000
-0.515958 30.342270 1.732051 0.707108 -0.707105 0.000000
-1.149324 29.708900 -1.732051 0.707108 -0.707105 0.000000
-0.515958 30.342270 1.732051 0.532030 -0.846725 0.000000
0.242466 30.818817 -1.732051 0.532030 -0.846725 0.000000
0.242466 30.818817 1.732051 0.532030 -0.846725 0.000000
-0.515958 30.342270 -1.732051 0.532030 -0.846725 0.000000
0.242466 30.818817 1.732051 0.330280 -0.943883 0.000000
1.087918 31.114655 -1.732051 0.330280 -0.943883 0.000000
1.087918 31.114655 1.732051 0.330280 -0.943883 0.000000
1.087918 31.114655 1.732051 0.111965 -0.993712 0.000000
1.087918 31.114655 -1.732051 0.111965 -0.993712 0.000000
1.978002 31.214943 1.732051 0.111965 -0.993712 0.000000
0.242466 30.818817 -1.732051 0.330280 -0.943883 0.000000
1.978002 31.214943 -1.732051 0.111965 -0.993712 0.000000
-1.059185 33.521729 3.464102 0.168721 -0.482183 0.859670
0.278408 32.445755 2.598076 0.168721 -0.482183 0.859670
0.420355 34.039436 3.464102 0.168721 -0.482183 0.859670
0.420355 34.039436 3.464102 0.054138 -0.480487 0.875329
0.278408 32.445755 2.598076 0.054138 -0.480487 0.875329
1.978002 34.214943 3.464102 0.054138 -0.480487 0.875329
1.978002 34.214943 3.464102 0.078945 -0.498440 0.863323
0.278408 32.445755 2.598076 0.078945 -0.498440 0.863323
1.978002 31.214943 1.732051 0.078945 -0.498440 0.863323
1.087918 31.114655 1.732051 0.163197 -0.466388 0.869396
0.278408 32.445755 2.598076 0.163197 -0.466388 0.869396
0.242466 30.818817 1.732051 0.163197 -0.466388 0.869396
1.978002 31.214943 1.732051 0.058497 -0.519175 0.852664
0.278408 32.445755 2.598076 0.058497 -0.519175 0.852664
1.087918 31.114655 1.732051 0.058497 -0.519175 0.852664
-2.386427 32.687767 3.464102 0.270268 -0.430130 0.861361
-1.254817 31.664536 2.598076 0.270268 -0.430130 0.861361
-1.059185 33.521729 3.464102 0.270268 -0.430130 0.861361
0.242466 30.818817 1.732051 0.264336 -0.420690 0.867840
-1.254817 31.664536 2.598076 0.264336 -0.420690 0.867840
-0.515958 30.342270 1.732051 0.264336 -0.420690 0.867840
0.278408 32.445755 2.598076 0.234781 -0.460783 0.855895
-1.254817 31.664536 2.598076 0.234781 -0.460783 0.855895
0.242466 30.818817 1.732051 0.234781 -0.460783 0.855895
-1.059185 33.521729 3.464102 0.219712 -0.431207 0.875093
-1.254817 31.664536 2.598076 0.219712 -0.431207 0.875093
0.278408 32.445755 2.598076 0.219712 -0.431207 0.875093
-4.328781 30.252129 3.464102 0.430131 -0.270270 0.861361
-2.471592 30.447762 2.598076 0.430131 -0.270270 0.861361
-3.494819 31.579369 3.464102 0.430131 -0.270270 0.861361
-3.494819 31.579369 3.464102 0.349406 -0.349404 0.869386
-2.471592 30.447762 2.598076 0.349406 -0.349404 0.869386
-2.386427 32.687767 3.464102 0.349406 -0.349404 0.869386
-1.149324 29.708900 1.732051 0.420689 -0.264337 0.867840
-2.471592 30.447762 2.598076 0.420689 -0.264337 0.867840
-1.625874 28.950478 1.732051 0.420689 -0.264337 0.867840
-0.515958 30.342270 1.732051 0.361213 -0.361211 0.859681
-2.471592 30.447762 2.598076 0.361213 -0.361211 0.859681
-1.149324 29.708900 1.732051 0.361213 -0.361211 0.859681
-1.254817 31.664536 2.598076 0.361213 -0.361213 0.859680
-2.471592 30.447762 2.598076 0.361213 -0.361213 0.859680
-0.515958 30.342270 1.732051 0.361213 -0.361213 0.859680
-2.386427 32.687767 3.464102 0.349404 -0.349404 0.869387
-2.471592 30.447762 2.598076 0.349404 -0.349404 0.869387
-1.254817 31.664536 2.598076 0.349404 -0.349404 0.869387
-2.021998 27.214943 1.732051 0.498439 -0.078945 0.863322
-3.252809 28.914536 2.598076 0.498439 -0.078945 0.863322
-5.021998 27.214943 3.464102 0.498439 -0.078945 0.863322
-5.021998 27.214943 3.464102 0.480486 -0.054138 0.875330
-3.252809 28.914536 2.598076 0.480486 -0.054138 0.875330
-4.846494 28.772591 3.464102 0.480486 -0.054138 0.875330
-4.846494 28.772591 3.464102 0.482182 -0.168723 0.859670
-3.252809 28.914536 2.598076 0.482182 -0.168723 0.859670
-4.328781 30.252129 3.464102 0.482182 -0.168723 0.859670
-1.921710 28.105026 1.732051 0.519176 -0.058497 0.852663
-3.252809 28.914536 2.598076 0.519176 -0.058497 0.852663
-2.021998 27.214943 1.732051 0.519176 -0.058497 0.852663
-1.625874 28.950478 1.732051 0.466389 -0.163196 0.869396
-3.252809 28.914536 2.598076 0.466389 -0.163196 0.869396
-1.921710 28.105026 1.732051 0.466389 -0.163196 0.869396
-4.328781 30.252129 3.464102 0.431208 -0.219711 0.875092
-3.252809 28.914536 2.598076 0.431208 -0.219711 0.875092
-2.471592 30.447762 2.598076 0.431208 -0.219711 0.875092
-2.471592 30.447762 2.598076 0.460784 -0.234781 0.855895
-3.252809 28.914536 2.598076 0.460784 -0.234781 0.855895
-1.625874 28.950478 1.732051 0.460784 -0.234781 0.855895
-6.232368 29.414902 2.598076 -0.509780 0.057438 0.858386
-5.021998 27.214943 3.464102 -0.509780 0.057438 0.858386
-4.846494 28.772591 3.464102 -0.509780 0.057438 0.858386
-6.232368 29.414902 2.598076 -0.467204 0.163482 0.868904
-4.846494 28.772591 3.464102 -0.467204 0.163482 0.868904
-4.328781 30.252129 3.464102 -0.467204 0.163482 0.868904
-6.232368 29.414902 2.598076 -0.476251 0.041667 0.878322
-7.870076 28.951424 1.732051 -0.476251 0.041667 0.878322
-8.021998 27.214943 1.732051 -0.476251 0.041667 0.878322
-6.232368 29.414902 2.598076 -0.492299 0.131911 0.860373
-7.418924 30.635147 1.732051 -0.492299 0.131911 0.860373
-7.870076 28.951424 1.732051 -0.492299 0.131911 0.860373
-6.232368 29.414902 2.598076 -0.498920 0.065684 0.864155
-8.021998 27.214943 1.732051 -0.498920 0.065684 0.864155
-5.021998 27.214943 3.464102 -0.498920 0.065684 0.864155
-5.383214 31.464943 2.598076 -0.415429 0.261032 0.871367
-4.328781 30.252129 3.464102 -0.415429 0.261032 0.871367
-3.494819 31.579369 3.464102 -0.415429 0.261032 0.871367
-5.383214 31.464943 2.598076 -0.454450 0.211914 0.865198
-6.682252 32.214943 1.732051 -0.454450 0.211914 0.865198
-7.418924 30.635147 1.732051 -0.454450 0.211914 0.865198
-5.383214 31.464943 2.598076 -0.410748 0.287608 0.865198
-5.682443 33.642822 1.732051 -0.410748 0.287608 0.865198
-6.682252 32.214943 1.732051 -0.410748 0.287608 0.865198
-5.383214 31.464943 2.598076 -0.476566 0.197400 0.856691
-6.232368 29.414902 2.598076 -0.476566 0.197400 0.856691
-4.328781 30.252129 3.464102 -0.476566 0.197400 0.856691
-5.383214 31.464943 2.598076 -0.447719 0.185451 0.874732
-7.418924 30.635147 1.732051 -0.447719 0.185451 0.874732
-6.232368 29.414902 2.598076 -0.447719 0.185451 0.874732
-4.032406 33.225349 2.598076 -0.345915 0.345913 0.872174
-3.494819 31.579369 3.464102 -0.345915 0.345913 0.872174
-2.386427 32.687767 3.464102 -0.345915 0.345913 0.872174
-4.032406 33.225349 2.598076 -0.360387 0.360388 0.860373
-4.449874 34.875389 1.732051 -0.360387 0.360388 0.860373
-5.682443 33.642822 1.732051 -0.360387 0.360388 0.860373
-4.032406 33.225349 2.598076 -0.411288 0.315593 0.855128
-5.383214 31.464943 2.598076 -0.411288 0.315593 0.855128
-3.494819 31.579369 3.464102 -0.411288 0.315593 0.855128
-4.032406 33.225349 2.598076 -0.384465 0.295010 0.874732
-5.682443 33.642822 1.732051 -0.384465 0.295010 0.874732
-5.383214 31.464943 2.598076 -0.384465 0.295010 0.874732
-2.271998 34.576157 2.598076 -0.261032 0.415431 0.871366
-2.386427 32.687767 3.464102 -0.261032 0.415431 0.871366
-1.059185 33.521729 3.464102 -0.261032 0.415431 0.871366
-2.271998 34.576157 2.598076 -0.287608 0.410747 0.865198
-3.021998 35.875198 1.732051 -0.287608 0.410747 0.865198
-4.449874 34.875389 1.732051 -0.287608 0.410747 0.865198
-2.271998 34.576157 2.598076 -0.211913 0.454450 0.865199
-1.442200 36.611870 1.732051 -0.211913 0.454450 0.865199
-3.021998 35.875198 1.732051 -0.211913 0.454450 0.865199
-2.271998 34.576157 2.598076 -0.295010 0.384465 0.874732
-4.449874 34.875389 1.732051 -0.295010 0.384465 0.874732
-4.032406 33.225349 2.598076 -0.295010 0.384465 0.874732
-2.271998 34.576157 2.598076 -0.315593 0.411289 0.855127
-4.032406 33.225349 2.598076 -0.315593 0.411289 0.855127
-2.386427 32.687767 3.464102 -0.315593 0.411289 0.855127
-0.221960 35.425316 2.598076 -0.163480 0.467204 0.868905
-1.059185 33.521729 3.464102 -0.163480 0.467204 0.868905
0.420355 34.039436 3.464102 -0.163480 0.467204 0.868905
-0.221960 35.425316 2.598076 -0.057439 0.509778 0.858386
0.420355 34.039436 3.464102 -0.057439 0.509778 0.858386
1.978002 34.214943 3.464102 -0.057439 0.509778 0.858386
-0.221960 35.425316 2.598076 -0.065683 0.498920 0.864155
1.978002 34.214943 3.464102 -0.065683 0.498920 0.864155
1.978002 37.214943 1.732051 -0.065683 0.498920 0.864155
-0.221960 35.425316 2.598076 -0.131911 0.492300 0.860372
0.241520 37.063019 1.732051 -0.131911 0.492300 0.860372
-1.442200 36.611870 1.732051 -0.131911 0.492300 0.860372
-0.221960 35.425316 2.598076 -0.041667 0.476252 0.878321
1.978002 37.214943 1.732051 -0.041667 0.476252 0.878321
0.241520 37.063019 1.732051 -0.041667 0.476252 0.878321
-0.221960 35.425316 2.598076 -0.197401 0.476566 0.856690
-2.271998 34.576157 2.598076 -0.197401 0.476566 0.856690
-1.059185 33.521729 3.464102 -0.197401 0.476566 0.856690
-0.221960 35.425316 2.598076 -0.185453 0.447719 0.874731
-1.442200 36.611870 1.732051 -0.185453 0.447719 0.874731
-2.271998 34.576157 2.598076 -0.185453 0.447719 0.874731
-7.870076 28.951424 -1.732051 -0.996195 0.087156 0.000000
-8.021998 27.214943 1.732051 -0.996195 0.087156 0.000000
-7.870076 28.951424 1.732051 -0.996195 0.087156 0.000000
-8.021998 27.214943 -1.732051 -0.996195 0.087156 0.000000
-7.418924 30.635147 -1.732051 -0.965926 0.258819 0.000000
-7.870076 28.951424 1.732051 -0.965926 0.258819 0.000000
-7.418924 30.635147 1.732051 -0.965926 0.258819 0.000000
-7.870076 28.951424 -1.732051 -0.965926 0.258819 0.000000
-6.682252 32.214943 -1.732051 -0.906308 0.422619 0.000000
-7.418924 30.635147 1.732051 -0.906308 0.422619 0.000000
-6.682252 32.214943 1.732051 -0.906308 0.422619 0.000000
-7.418924 30.635147 -1.732051 -0.906308 0.422619 0.000000
-5.682443 33.642822 -1.732051 -0.819153 0.573576 0.000000
-6.682252 32.214943 1.732051 -0.819153 0.573576 0.000000
-5.682443 33.642822 1.732051 -0.819153 0.573576 0.000000
-6.682252 32.214943 -1.732051 -0.819153 0.573576 0.000000
-4.449874 34.875389 -1.732051 -0.707106 0.707107 0.000000
-5.682443 33.642822 1.732051 -0.707106 0.707107 0.000000
-4.449874 34.875389 1.732051 -0.707106 0.707107 0.000000
-4.449874 34.875389 -1.732051 -0.573576 0.819152 0.000000
-4.449874 34.875389 1.732051 -0.573576 0.819152 0.000000
-3.021998 35.875198 1.732051 -0.573576 0.819152 0.000000
-5.682443 33.642822 -1.732051 -0.707106 0.707107 0.000000
-3.021998 35.875198 -1.732051 -0.573576 0.819152 0.000000
-1.442200 36.611870 -1.732051 -0.422618 0.906308 0.000000
-3.021998 35.875198 1.732051 -0.422618 0.906308 0.000000
-1.442200 36.611870 1.732051 -0.422618 0.906308 0.000000
-1.442200 36.611870 -1.732051 -0.258818 0.965926 0.000000
-1.442200 36.611870 1.732051 -0.258818 0.965926 0.000000
0.241520 37.063019 1.732051 -0.258818 0.965926 0.000000
-3.021998 35.875198 -1.732051 -0.422618 0.906308 0.000000
0.241520 37.063019 -1.732051 -0.258818 0.965926 0.000000
1.978002 37.214943 -1.732051 -0.087157 0.996195 0.000000
0.241520 37.063019 1.732051 -0.087157 0.996195 0.000000
1.978002 37.214943 1.732051 -0.087157 0.996195 0.000000
0.241520 37.063019 -1.732051 -0.087157 0.996195 0.000000
-0.221960 35.425316 -2.598076 -0.131911 0.492300 -0.860372
-1.442200 36.611870 -1.732051 -0.131911 0.492300 -0.860372
0.241520 37.063019 -1.732051 -0.131911 0.492300 -0.860372
-0.221960 35.425316 -2.598076 -0.041667 0.476252 -0.878321
0.241520 37.063019 -1.732051 -0.041667 0.476252 -0.878321
1.978002 37.214943 -1.732051 -0.041667 0.476252 -0.878321
-0.221960 35.425316 -2.598076 -0.065683 0.498920 -0.864155
1.978002 37.214943 -1.732051 -0.065683 0.498920 -0.864155
1.978002 34.214943 -3.464102 -0.065683 0.498920 -0.864155
-0.221960 35.425316 -2.598076 -0.163480 0.467204 -0.868905
0.420355 34.039436 -3.464102 -0.163480 0.467204 -0.868905
-1.059185 33.521729 -3.464102 -0.163480 0.467204 -0.868905
-0.221960 35.425316 -2.598076 -0.057439 0.509778 -0.858386
1.978002 34.214943 -3.464102 -0.057439 0.509778 -0.858386
0.420355 34.039436 -3.464102 -0.057439 0.509778 -0.858386
-2.271998 34.576157 -2.598076 -0.287608 0.410747 -0.865198
-4.449874 34.875389 -1.732051 -0.287608 0.410747 -0.865198
-3.021998 35.875198 -1.732051 -0.287608 0.410747 -0.865198
-2.271998 34.576157 -2.598076 -0.211913 0.454450 -0.865199
-3.021998 35.875198 -1.732051 -0.211913 0.454450 -0.865199
-1.442200 36.611870 -1.732051 -0.211913 0.454450 -0.865199
-2.271998 34.576157 -2.598076 -0.261032 0.415431 -0.871366
-1.059185 33.521729 -3.464102 -0.261032 0.415431 -0.871366
-2.386427 32.687767 -3.464102 -0.261032 0.415431 -0.871366
-2.271998 34.576157 -2.598076 -0.197401 0.476566 -0.856690
-0.221960 35.425316 -2.598076 -0.197401 0.476566 -0.856690
-1.059185 33.521729 -3.464102 -0.197401 0.476566 -0.856690
-2.271998 34.576157 -2.598076 -0.185453 0.447719 -0.874731
-1.442200 36.611870 -1.732051 -0.185453 0.447719 -0.874731
-0.221960 35.425316 -2.598076 -0.185453 0.447719 -0.874731
-4.032406 33.225349 -2.598076 -0.360387 0.360388 -0.860373
-5.682443 33.642822 -1.732051 -0.360387 0.360388 -0.860373
-4.449874 34.875389 -1.732051 -0.360387 0.360388 -0.860373
-4.032406 33.225349 -2.598076 -0.345915 0.345913 -0.872174
-2.386427 32.687767 -3.464102 -0.345915 0.345913 -0.872174
-3.494819 31.579369 -3.464102 -0.345915 0.345913 -0.872174
-4.032406 33.225349 -2.598076 -0.315593 0.411289 -0.855127
-2.271998 34.576157 -2.598076 -0.315593 0.411289 -0.855127
-2.386427 32.687767 -3.464102 -0.315593 0.411289 -0.855127
-4.032406 33.225349 -2.598076 -0.295010 0.384465 -0.874732
-4.449874 34.875389 -1.732051 -0.295010 0.384465 -0.874732
-2.271998 34.576157 -2.598076 -0.295010 0.384465 -0.874732
-5.383214 31.464943 -2.598076 -0.454450 0.211914 -0.865198
-7.418924 30.635147 -1.732051 -0.454450 0.211914 -0.865198
-6.682252 32.214943 -1.732051 -0.454450 0.211914 -0.865198
-5.383214 31.464943 -2.598076 -0.410748 0.287608 -0.865198
-6.682252 32.214943 -1.732051 -0.410748 0.287608 -0.865198
-5.682443 33.642822 -1.732051 -0.410748 0.287608 -0.865198
-5.383214 31.464943 -2.598076 -0.415429 0.261032 -0.871367
-3.494819 31.579369 -3.464102 -0.415429 0.261032 -0.871367
-4.328781 30.252129 -3.464102 -0.415429 0.261032 -0.871367
-5.383214 31.464943 -2.598076 -0.411288 0.315593 -0.855128
-4.032406 33.225349 -2.598076 -0.411288 0.315593 -0.855128
-3.494819 31.579369 -3.464102 -0.411288 0.315593 -0.855128
-5.383214 31.464943 -2.598076 -0.384465 0.295010 -0.874732
-5.682443 33.642822 -1.732051 -0.384465 0.295010 -0.874732
-4.032406 33.225349 -2.598076 -0.384465 0.295010 -0.874732
-6.232368 29.414902 -2.598076 -0.476251 0.041667 -0.878322
-8.021998 27.214943 -1.732051 -0.476251 0.041667 -0.878322
-7.870076 28.951424 -1.732051 -0.476251 0.041667 -0.878322
-6.232368 29.414902 -2.598076 -0.492299 0.131911 -0.860373
-7.870076 28.951424 -1.732051 -0.492299 0.131911 -0.860373
-7.418924 30.635147 -1.732051 -0.492299 0.131911 -0.860373
-6.232368 29.414902 -2.598076 -0.509780 0.057438 -0.858386
-4.846494 28.772591 -3.464102 -0.509780 0.057438 -0.858386
-5.021998 27.214943 -3.464102 -0.509780 0.057438 -0.858386
-6.232368 29.414902 -2.598076 -0.467204 0.163482 -0.868904
-4.328781 30.252129 -3.464102 -0.467204 0.163482 -0.868904
-4.846494 28.772591 -3.464102 -0.467204 0.163482 -0.868904
-6.232368 29.414902 -2.598076 -0.498920 0.065684 -0.864155
-5.021998 27.214943 -3.464102 -0.498920 0.065684 -0.864155
-8.021998 27.214943 -1.732051 -0.498920 0.065684 -0.864155
-6.232368 29.414902 -2.598076 -0.447719 0.185451 -0.874732
-7.418924 30.635147 -1.732051 -0.447719 0.185451 -0.874732
-5.383214 31.464943 -2.598076 -0.447719 0.185451 -0.874732
-6.232368 29.414902 -2.598076 -0.476566 0.197400 -0.856691
-5.383214 31.464943 -2.598076 -0.476566 0.197400 -0.856691
-4.328781 30.252129 -3.464102 -0.476566 0.197400 -0.856691
28.978001 37.214943 -1.732051 0.000000 0.500000 -0.866025
28.978001 34.214943 -3.464102 0.000000 0.500000 -0.866025
1.978002 34.214943 -3.464102 0.000000 0.500000 -0.866025
1.978002 37.214943 -1.732051 0.000000 0.500000 -0.866025
28.978001 34.214943 -3.464102 0.000000 -0.500000 -0.866025
28.978001 31.214943 -1.732051 0.000000 -0.500000 -0.866025
1.978002 31.214943 -1.732051 0.000000 -0.500000 -0.866025
1.978002 34.214943 -3.464102 0.000000 -0.500000 -0.866025
28.978001 31.214943 -1.732051 0.000000 -1.000000 0.000000
28.978001 31.214943 1.732051 0.000000 -1.000000 0.000000
1.978002 31.214943 1.732051 0.000000 -1.000000 0.000000
1.978002 31.214943 -1.732051 0.000000 -1.000000 0.000000
28.978001 31.214943 1.732051 0.000000 -0.500000 0.866025
28.978001 34.214943 3.464102 0.000000 -0.500000 0.866025
1.978002 34.214943 3.464102 0.000000 -0.500000 0.866025
1.978002 31.214943 1.732051 0.000000 -0.500000 0.866025
28.978001 34.214943 3.464102 -0.000000 0.500000 0.866025
28.978001 37.214943 1.732051 -0.000000 0.500000 0.866025
1.978002 37.214943 1.732051 -0.000000 0.500000 0.866025
1.978002 34.214943 3.464102 0.000000 0.500000 0.866025
28.978001 37.214943 1.732051 0.000000 1.000000 0.000000
28.978001 37.214943 -1.732051 0.000000 1.000000 0.000000
1.978002 37.214943 -1.732051 0.000000 1.000000 0.000000
1.978002 37.214943 1.732051 -0.000000 1.000000 0.000000
28.978001 37.214943 -1.732051 1.000000 0.000000 -0.000000
28.978001 31.214943 -1.732051 1.000000 0.000000 -0.000000
28.978001 34.214943 -3.464102 1.000000 0.000000 -0.000000
28.978001 37.214943 1.732051 1.000000 -0.000000 0.000000
28.978001 34.214943 3.464102 1.000000 -0.000000 0.000000
28.978001 31.214943 1.732051 1.000000 -0.000000 0.000000
3 0 1 2
3 3 4 0
3 5 4 3
3 0 4 1
3 6 7 8
3 6 8 9
3 10 11 12
3 10 12 13
3 14 15 16
3 14 16 17
3 18 19 20
3 18 20 21
3 22 23 24
3 22 24 25
3 26 27 28
3 26 28 29
3 30 31 32
3 33 34 35
3 36 37 38
3 39 40 41
3 42 43 44
3 45 46 47
3 48 49 50
3 51 52 53
3 54 55 56
3 57 58 59
3 60 61 62
3 63 64 65
3 66 67 68
3 69 70 71
3 72 73 74
3 75 76 77
3 78 79 80
3 81 82 83
3 84 85 86
3 87 88 89
3 90 91 92
3 93 94 95
3 96 97 98
3 98 97 99
3 100 101 102
3 103 101 100
3 104 105 106
3 107 105 104
3 108 109 110
3 111 109 108
3 112 113 114
3 115 113 112
3 116 117 118
3 119 120 121
3 122 117 116
3 120 123 121
3 124 125 126
3 127 128 129
3 130 131 132
3 133 134 135
3 136 137 138
3 139 140 141
3 142 143 144
3 145 146 147
3 148 149 150
3 151 152 153
3 154 155 156
3 157 158 159
3 160 161 162
3 163 164 165
3 166 167 168
3 169 170 171
3 172 173 174
3 175 176 177
3 178 179 180
3 181 182 183
3 184 185 186
3 187 188 189
3 190 191 192
3 193 194 195
3 196 197 198
3 199 200 201
3 202 203 204
3 205 206 207
3 208 209 210
3 211 212 213
3 214 215 216
3 217 218 219
3 220 221 222
3 223 224 225
3 226 227 228
3 229 230 231
3 232 233 234
3 235 236 237
3 238 239 240
3 241 242 243
3 244 245 246
3 247 248 249
3 250 251 252
3 253 254 255
3 256 257 258
3 259 260 261
3 262 263 264
3 265 266 267
3 268 269 270
3 268 271 269
3 272 273 274
3 272 275 273
3 276 277 278
3 276 279 277
3 280 281 282
3 280 283 281
3 284 285 286
3 287 288 289
3 284 290 285
3 291 287 289
3 292 293 294
3 295 296 297
3 292 298 293
3 299 295 297
3 300 301 302
3 300 303 301
3 304 305 306
3 307 308 309
3 310 311 312
3 313 314 315
3 316 317 318
3 319 320 321
3 322 323 324
3 325 326 327
3 328 329 330
3 331 332 333
3 334 335 336
3 337 338 339
3 340 341 342
3 343 344 345
3 346 347 348
3 349 350 351
3 352 353 354
3 355 356 357
3 358 359 360
3 361 362 363
3 364 365 366
3 367 368 369
3 370 371 372
3 373 374 375
3 376 377 378
3 379 380 381
3 382 383 384
3 382 384 385
3 386 387 388
3 386 388 389
3 390 391 392
3 390 392 393
3 394 395 396
3 394 396 397
3 398 399 400
3 398 400 401
3 402 403 404
3 402 404 405
3 406 407 408
3 409 410 411
3 409 411 407
3 409 407 406
