ply
format ascii 1.0
comment Created by Blender 2.83.5 - www.blender.org, source file: ''
element vertex 444
property float x
property float y
property float z
property float nx
property float ny
property float nz
element face 296
property list uchar uint vertex_indices
end_header
-25.000000 6.876645 4.996175 -1.000000 0.000000 -0.000000
-25.000000 4.434053 4.042174 -1.000000 0.000000 -0.000000
-25.000000 6.010407 6.010407 -1.000000 0.000000 -0.000000
-25.000000 3.615808 4.788104 -1.000000 0.000000 -0.000000
-25.000000 4.996175 6.876645 -1.000000 0.000000 -0.000000
-25.000000 7.573555 3.858919 -1.000000 0.000000 -0.000000
-25.000000 5.101303 3.158593 -1.000000 0.000000 -0.000000
-25.000000 2.674430 5.370980 -1.000000 0.000000 -0.000000
-25.000000 3.858919 7.573555 -1.000000 0.000000 -0.000000
-25.000000 2.626644 8.083981 -1.000000 0.000000 0.000000
-25.000000 5.594833 2.167450 -1.000000 0.000000 0.000000
-25.000000 8.083981 2.626644 -1.000000 0.000000 -0.000000
-25.000000 1.641978 5.770954 -1.000000 0.000000 -0.000000
-25.000000 1.329693 8.395350 -1.000000 0.000000 0.000000
-25.000000 8.395350 1.329693 -1.000000 0.000000 -0.000000
-25.000000 5.897839 1.102497 -1.000000 0.000000 -0.000000
-25.000000 0.553610 5.974405 -1.000000 0.000000 0.000000
-25.000000 0.000000 8.500000 -1.000000 0.000000 0.000000
-25.000000 6.000000 0.000000 -1.000000 0.000000 0.000000
-25.000000 8.395350 -1.329693 -1.000000 -0.000000 -0.000000
-25.000000 8.500000 0.000000 -1.000000 -0.000000 -0.000000
-25.000000 -0.553610 5.974405 -1.000000 0.000000 -0.000000
-25.000000 -1.329693 8.395350 -1.000000 0.000000 0.000000
-25.000000 5.897839 -1.102497 -1.000000 0.000000 -0.000000
-25.000000 8.083981 -2.626644 -1.000000 -0.000000 -0.000000
-25.000000 -1.641978 5.770954 -1.000000 0.000000 -0.000000
-25.000000 -2.626644 8.083981 -1.000000 0.000000 0.000000
-25.000000 7.573555 -3.858919 -1.000000 -0.000000 -0.000000
-25.000000 5.594833 -2.167450 -1.000000 -0.000000 -0.000000
-25.000000 -2.674430 5.370980 -1.000000 0.000000 -0.000000
-25.000000 -3.858919 7.573555 -1.000000 0.000000 0.000000
-25.000000 5.101303 -3.158593 -1.000000 0.000000 -0.000000
-25.000000 -4.996175 6.876645 -1.000000 0.000000 -0.000000
-25.000000 6.876645 -4.996175 -1.000000 0.000000 0.000000
-25.000000 -3.615808 4.788104 -1.000000 0.000000 0.000000
-25.000000 4.434053 -4.042174 -1.000000 0.000000 -0.000000
-25.000000 -6.010407 6.010407 -1.000000 0.000000 -0.000000
-25.000000 6.010407 -6.010407 -1.000000 0.000000 0.000000
-25.000000 -4.434053 4.042174 -1.000000 0.000000 0.000000
-25.000000 3.615808 -4.788104 -1.000000 0.000000 -0.000000
-25.000000 -6.876645 4.996175 -1.000000 0.000000 -0.000000
-25.000000 4.996175 -6.876645 -1.000000 0.000000 0.000000
-25.000000 -5.101303 3.158593 -1.000000 0.000000 0.000000
-25.000000 2.674430 -5.370980 -1.000000 0.000000 -0.000000
-25.000000 -5.594833 2.167450 -1.000000 -0.000000 -0.000000
-25.000000 -7.573555 3.858919 -1.000000 -0.000000 -0.000000
-25.000000 3.858919 -7.573555 -1.000000 0.000000 0.000000
-25.000000 -5.897839 1.102497 -1.000000 -0.000000 -0.000000
-25.000000 -8.083981 2.626644 -1.000000 -0.000000 -0.000000
-25.000000 2.626644 -8.083981 -1.000000 0.000000 0.000000
-25.000000 1.641978 -5.770954 -1.000000 0.000000 0.000000
-25.000000 -6.000000 0.000000 -1.000000 -0.000000 -0.000000
-25.000000 -8.395350 1.329693 -1.000000 -0.000000 -0.000000
-25.000000 1.329693 -8.395350 -1.000000 0.000000 0.000000
-25.000000 0.553610 -5.974405 -1.000000 0.000000 0.000000
-25.000000 -0.000000 -8.500000 -1.000000 0.000000 0.000000
-25.000000 -0.553610 -5.974405 -1.000000 0.000000 0.000000
-25.000000 -8.500000 0.000000 -1.000000 0.000000 -0.000000
-25.000000 -8.395350 -1.329693 -1.000000 0.000000 0.000000
-25.000000 -5.897839 -1.102497 -1.000000 0.000000 -0.000000
-25.000000 -1.329693 -8.395350 -1.000000 0.000000 0.000000
-25.000000 -1.641978 -5.770954 -1.000000 0.000000 0.000000
-25.000000 -2.626644 -8.083981 -1.000000 0.000000 -0.000000
-25.000000 -2.674430 -5.370980 -1.000000 0.000000 0.000000
-25.000000 -8.083981 -2.626644 -1.000000 0.000000 0.000000
-25.000000 -5.594833 -2.167450 -1.000000 0.000000 -0.000000
-25.000000 -7.573555 -3.858919 -1.000000 0.000000 0.000000
-25.000000 -5.101303 -3.158593 -1.000000 0.000000 -0.000000
-25.000000 -3.858919 -7.573555 -1.000000 0.000000 -0.000000
-25.000000 -6.876645 -4.996175 -1.000000 0.000000 0.000000
-25.000000 -4.434053 -4.042174 -1.000000 0.000000 -0.000000
-25.000000 -4.996175 -6.876645 -1.000000 0.000000 -0.000000
-25.000000 -3.615808 -4.788104 -1.000000 0.000000 -0.000000
-25.000000 -6.010407 -6.010407 -1.000000 0.000000 0.000000
25.000000 -8.395350 -1.329693 0.000000 -0.996917 -0.078459
25.000000 -8.500000 0.000000 0.000000 -0.996917 -0.078459
-25.000000 -8.500000 0.000000 0.000000 -0.996917 -0.078459
-25.000000 -8.395350 -1.329693 0.000000 -0.996917 -0.078459
25.000000 -8.083981 -2.626644 0.000000 -0.972370 -0.233445
-25.000000 -8.395350 -1.329693 0.000000 -0.972370 -0.233445
-25.000000 -8.083981 -2.626644 0.000000 -0.972370 -0.233445
25.000000 -8.083981 -2.626644 0.000000 -0.923880 -0.382684
-25.000000 -8.083981 -2.626644 0.000000 -0.923880 -0.382684
-25.000000 -7.573555 -3.858919 0.000000 -0.923880 -0.382684
25.000000 -8.395350 -1.329693 0.000000 -0.972370 -0.233445
25.000000 -7.573555 -3.858919 0.000000 -0.923880 -0.382684
25.000000 -6.876645 -4.996175 0.000000 -0.852640 -0.522498
-25.000000 -7.573555 -3.858919 0.000000 -0.852640 -0.522498
-25.000000 -6.876645 -4.996175 0.000000 -0.852640 -0.522498
25.000000 -7.573555 -3.858919 0.000000 -0.852640 -0.522498
25.000000 -6.010407 -6.010407 0.000000 -0.760406 -0.649448
-25.000000 -6.876645 -4.996175 0.000000 -0.760406 -0.649448
-25.000000 -6.010407 -6.010407 0.000000 -0.760406 -0.649448
25.000000 -6.876645 -4.996175 0.000000 -0.760406 -0.649448
25.000000 -4.996175 -6.876645 0.000000 -0.649448 -0.760406
-25.000000 -6.010407 -6.010407 0.000000 -0.649448 -0.760406
-25.000000 -4.996175 -6.876645 0.000000 -0.649448 -0.760406
25.000000 -6.010407 -6.010407 0.000000 -0.649448 -0.760406
25.000000 -3.858919 -7.573555 0.000000 -0.522498 -0.852640
-25.000000 -4.996175 -6.876645 0.000000 -0.522498 -0.852640
-25.000000 -3.858919 -7.573555 0.000000 -0.522498 -0.852640
25.000000 -3.858919 -7.573555 0.000000 -0.382684 -0.923880
-25.000000 -3.858919 -7.573555 0.000000 -0.382684 -0.923880
-25.000000 -2.626644 -8.083981 0.000000 -0.382684 -0.923880
25.000000 -4.996175 -6.876645 0.000000 -0.522498 -0.852640
25.000000 -2.626644 -8.083981 0.000000 -0.233445 -0.972370
-25.000000 -2.626644 -8.083981 0.000000 -0.233445 -0.972370
-25.000000 -1.329693 -8.395350 0.000000 -0.233445 -0.972370
25.000000 -2.626644 -8.083981 0.000000 -0.382684 -0.923880
25.000000 -1.329693 -8.395350 0.000000 -0.233445 -0.972370
25.000000 -0.000000 -8.500000 0.000000 -0.078459 -0.996917
-25.000000 -1.329693 -8.395350 0.000000 -0.078459 -0.996917
-25.000000 -0.000000 -8.500000 0.000000 -0.078459 -0.996917
25.000000 -1.329693 -8.395350 0.000000 -0.078459 -0.996917
25.000000 1.329693 -8.395350 0.000000 0.078459 -0.996917
-25.000000 -0.000000 -8.500000 0.000000 0.078459 -0.996917
-25.000000 1.329693 -8.395350 0.000000 0.078459 -0.996917
25.000000 -0.000000 -8.500000 0.000000 0.078459 -0.996917
25.000000 2.626644 -8.083981 0.000000 0.233445 -0.972370
-25.000000 1.329693 -8.395350 0.000000 0.233445 -0.972370
-25.000000 2.626644 -8.083981 0.000000 0.233445 -0.972370
25.000000 2.626644 -8.083981 0.000000 0.382684 -0.923880
-25.000000 2.626644 -8.083981 0.000000 0.382684 -0.923880
-25.000000 3.858919 -7.573555 0.000000 0.382684 -0.923880
25.000000 1.329693 -8.395350 0.000000 0.233445 -0.972370
25.000000 3.858919 -7.573555 0.000000 0.382684 -0.923880
25.000000 4.996175 -6.876645 0.000000 0.522498 -0.852640
25.000000 3.858919 -7.573555 0.000000 0.522498 -0.852640
-25.000000 3.858919 -7.573555 0.000000 0.522498 -0.852640
-25.000000 4.996175 -6.876645 0.000000 0.522498 -0.852640
25.000000 6.010407 -6.010407 0.000000 0.649448 -0.760406
25.000000 4.996175 -6.876645 0.000000 0.649448 -0.760406
-25.000000 4.996175 -6.876645 0.000000 0.649448 -0.760406
-25.000000 6.010407 -6.010407 0.000000 0.649448 -0.760406
25.000000 6.010407 -6.010407 0.000000 0.760406 -0.649448
-25.000000 6.010407 -6.010407 0.000000 0.760406 -0.649448
-25.000000 6.876645 -4.996175 0.000000 0.760406 -0.649448
25.000000 6.876645 -4.996175 0.000000 0.760406 -0.649448
25.000000 6.876645 -4.996175 0.000000 0.852640 -0.522498
-25.000000 6.876645 -4.996175 0.000000 0.852640 -0.522498
-25.000000 7.573555 -3.858919 0.000000 0.852640 -0.522498
25.000000 7.573555 -3.858919 0.000000 0.852640 -0.522498
25.000000 7.573555 -3.858919 0.000000 0.923880 -0.382684
-25.000000 7.573555 -3.858919 0.000000 0.923880 -0.382684
-25.000000 8.083981 -2.626644 0.000000 0.923880 -0.382684
25.000000 8.083981 -2.626644 0.000000 0.923880 -0.382684
25.000000 8.395350 -1.329693 0.000000 0.972370 -0.233445
25.000000 8.083981 -2.626644 0.000000 0.972370 -0.233445
-25.000000 8.083981 -2.626644 0.000000 0.972370 -0.233445
-25.000000 8.395350 -1.329693 0.000000 0.972370 -0.233445
25.000000 8.395350 -1.329693 0.000000 0.996917 -0.078459
-25.000000 8.395350 -1.329693 0.000000 0.996917 -0.078459
-25.000000 8.500000 0.000000 0.000000 0.996917 -0.078459
25.000000 8.500000 0.000000 0.000000 0.996917 -0.078459
25.000000 8.395350 1.329693 -0.000000 0.996917 0.078459
25.000000 8.500000 0.000000 -0.000000 0.996917 0.078459
-25.000000 8.500000 0.000000 -0.000000 0.996917 0.078459
-25.000000 8.395350 1.329693 0.000000 0.996917 0.078459
25.000000 8.083981 2.626644 0.000000 0.972370 0.233445
-25.000000 8.395350 1.329693 0.000000 0.972370 0.233445
-25.000000 8.083981 2.626644 0.000000 0.972370 0.233445
25.000000 8.083981 2.626644 -0.000000 0.923880 0.382684
-25.000000 8.083981 2.626644 -0.000000 0.923880 0.382684
-25.000000 7.573555 3.858919 -0.000000 0.923880 0.382684
25.000000 8.395350 1.329693 -0.000000 0.972370 0.233445
25.000000 7.573555 3.858919 0.000000 0.923880 0.382684
25.000000 6.876645 4.996175 0.000000 0.852640 0.522498
-25.000000 7.573555 3.858919 0.000000 0.852640 0.522498
-25.000000 6.876645 4.996175 0.000000 0.852640 0.522498
25.000000 7.573555 3.858919 -0.000000 0.852640 0.522498
25.000000 6.010407 6.010407 0.000000 0.760406 0.649448
-25.000000 6.876645 4.996175 0.000000 0.760406 0.649448
-25.000000 6.010407 6.010407 0.000000 0.760406 0.649448
25.000000 6.876645 4.996175 -0.000000 0.760406 0.649448
25.000000 4.996175 6.876645 0.000000 0.649448 0.760406
-25.000000 6.010407 6.010407 0.000000 0.649448 0.760406
-25.000000 4.996175 6.876645 0.000000 0.649448 0.760406
25.000000 6.010407 6.010407 -0.000000 0.649448 0.760406
25.000000 3.858919 7.573555 0.000000 0.522498 0.852640
-25.000000 4.996175 6.876645 0.000000 0.522498 0.852640
-25.000000 3.858919 7.573555 0.000000 0.522498 0.852640
25.000000 3.858919 7.573555 -0.000000 0.382684 0.923880
-25.000000 3.858919 7.573555 -0.000000 0.382684 0.923880
-25.000000 2.626644 8.083981 -0.000000 0.382684 0.923880
25.000000 4.996175 6.876645 -0.000000 0.522498 0.852640
25.000000 2.626644 8.083981 -0.000000 0.233445 0.972370
-25.000000 2.626644 8.083981 -0.000000 0.233445 0.972370
-25.000000 1.329693 8.395350 -0.000000 0.233445 0.972370
25.000000 2.626644 8.083981 0.000000 0.382684 0.923880
25.000000 1.329693 8.395350 0.000000 0.233445 0.972370
25.000000 0.000000 8.500000 0.000000 0.078459 0.996917
-25.000000 1.329693 8.395350 0.000000 0.078459 0.996917
-25.000000 0.000000 8.500000 0.000000 0.078459 0.996917
25.000000 1.329693 8.395350 -0.000000 0.078459 0.996917
25.000000 -1.329693 8.395350 0.000000 -0.078459 0.996917
-25.000000 0.000000 8.500000 0.000000 -0.078459 0.996917
-25.000000 -1.329693 8.395350 0.000000 -0.078459 0.996917
25.000000 0.000000 8.500000 0.000000 -0.078459 0.996917
25.000000 -2.626644 8.083981 0.000000 -0.233445 0.972370
-25.000000 -1.329693 8.395350 0.000000 -0.233445 0.972370
-25.000000 -2.626644 8.083981 0.000000 -0.233445 0.972370
25.000000 -2.626644 8.083981 0.000000 -0.382684 0.923880
-25.000000 -2.626644 8.083981 0.000000 -0.382684 0.923880
-25.000000 -3.858919 7.573555 0.000000 -0.382684 0.923880
25.000000 -1.329693 8.395350 0.000000 -0.233445 0.972370
25.000000 -3.858919 7.573555 0.000000 -0.382684 0.923880
25.000000 -4.996175 6.876645 0.000000 -0.522498 0.852640
25.000000 -3.858919 7.573555 0.000000 -0.522498 0.852640
-25.000000 -3.858919 7.573555 0.000000 -0.522498 0.852640
-25.000000 -4.996175 6.876645 0.000000 -0.522498 0.852640
25.000000 -6.010407 6.010407 0.000000 -0.649448 0.760406
25.000000 -4.996175 6.876645 0.000000 -0.649448 0.760406
-25.000000 -4.996175 6.876645 0.000000 -0.649448 0.760406
-25.000000 -6.010407 6.010407 0.000000 -0.649448 0.760406
25.000000 -6.010407 6.010407 0.000000 -0.760406 0.649448
-25.000000 -6.010407 6.010407 0.000000 -0.760406 0.649448
-25.000000 -6.876645 4.996175 0.000000 -0.760406 0.649448
25.000000 -6.876645 4.996175 0.000000 -0.760406 0.649448
25.000000 -6.876645 4.996175 0.000000 -0.852640 0.522498
-25.000000 -6.876645 4.996175 0.000000 -0.852640 0.522498
-25.000000 -7.573555 3.858919 0.000000 -0.852640 0.522498
25.000000 -7.573555 3.858919 0.000000 -0.852640 0.522498
25.000000 -7.573555 3.858919 0.000000 -0.923880 0.382684
-25.000000 -7.573555 3.858919 0.000000 -0.923880 0.382684
-25.000000 -8.083981 2.626644 0.000000 -0.923880 0.382684
25.000000 -8.083981 2.626644 0.000000 -0.923880 0.382684
25.000000 -8.395350 1.329693 0.000000 -0.972370 0.233445
25.000000 -8.083981 2.626644 0.000000 -0.972370 0.233445
-25.000000 -8.083981 2.626644 0.000000 -0.972370 0.233445
-25.000000 -8.395350 1.329693 0.000000 -0.972370 0.233445
25.000000 -8.395350 1.329693 0.000000 -0.996917 0.078459
-25.000000 -8.395350 1.329693 0.000000 -0.996917 0.078459
-25.000000 -8.500000 0.000000 0.000000 -0.996917 0.078459
25.000000 -8.500000 0.000000 0.000000 -0.996917 0.078459
25.000000 4.434053 4.042174 1.000000 0.000000 0.000000
25.000000 6.876645 4.996175 1.000000 0.000000 0.000000
25.000000 6.010407 6.010407 1.000000 0.000000 0.000000
25.000000 3.615808 4.788104 1.000000 0.000000 0.000000
25.000000 4.996175 6.876645 1.000000 0.000000 0.000000
25.000000 5.101303 3.158593 1.000000 0.000000 0.000000
25.000000 7.573555 3.858919 1.000000 0.000000 0.000000
25.000000 2.674430 5.370980 1.000000 0.000000 0.000000
25.000000 3.858919 7.573555 1.000000 0.000000 0.000000
25.000000 2.626644 8.083981 1.000000 0.000000 0.000000
25.000000 5.594833 2.167450 1.000000 0.000000 0.000000
25.000000 8.083981 2.626644 1.000000 0.000000 0.000000
25.000000 1.641978 5.770954 1.000000 0.000000 0.000000
25.000000 1.329693 8.395350 1.000000 0.000000 0.000000
25.000000 5.897839 1.102497 1.000000 0.000000 0.000000
25.000000 8.395350 1.329693 1.000000 0.000000 0.000000
25.000000 0.553610 5.974405 1.000000 0.000000 0.000000
25.000000 0.000000 8.500000 1.000000 0.000000 0.000000
25.000000 6.000000 0.000000 1.000000 0.000000 0.000000
25.000000 8.500000 0.000000 1.000000 0.000000 0.000000
25.000000 8.395350 -1.329693 1.000000 0.000000 0.000000
25.000000 -0.553610 5.974405 1.000000 -0.000000 0.000000
25.000000 -1.329693 8.395350 1.000000 -0.000000 0.000000
25.000000 5.897839 -1.102497 1.000000 0.000000 0.000000
25.000000 8.083981 -2.626644 1.000000 0.000000 0.000000
25.000000 -1.641978 5.770954 1.000000 0.000000 0.000000
25.000000 -2.626644 8.083981 1.000000 -0.000000 0.000000
25.000000 5.594833 -2.167450 1.000000 0.000000 0.000000
25.000000 7.573555 -3.858919 1.000000 0.000000 0.000000
25.000000 -2.674430 5.370980 1.000000 -0.000000 0.000000
25.000000 -3.858919 7.573555 1.000000 -0.000000 0.000000
25.000000 5.101303 -3.158593 1.000000 0.000000 0.000000
25.000000 6.876645 -4.996175 1.000000 0.000000 0.000000
25.000000 -4.996175 6.876645 1.000000 0.000000 0.000000
25.000000 -3.615808 4.788104 1.000000 0.000000 0.000000
25.000000 4.434053 -4.042174 1.000000 0.000000 0.000000
25.000000 -6.010407 6.010407 1.000000 0.000000 0.000000
25.000000 6.010407 -6.010407 1.000000 0.000000 0.000000
25.000000 -4.434053 4.042174 1.000000 0.000000 0.000000
25.000000 3.615808 -4.788104 1.000000 0.000000 0.000000
25.000000 -6.876645 4.996175 1.000000 0.000000 0.000000
25.000000 4.996175 -6.876645 1.000000 0.000000 0.000000
25.000000 -5.101303 3.158593 1.000000 0.000000 0.000000
25.000000 2.674430 -5.370980 1.000000 0.000000 0.000000
25.000000 3.858919 -7.573555 1.000000 0.000000 0.000000
25.000000 -7.573555 3.858919 1.000000 0.000000 0.000000
25.000000 -5.594833 2.167450 1.000000 0.000000 0.000000
25.000000 2.626644 -8.083981 1.000000 -0.000000 0.000000
25.000000 1.641978 -5.770954 1.000000 -0.000000 0.000000
25.000000 -8.083981 2.626644 1.000000 0.000000 0.000000
25.000000 -5.897839 1.102497 1.000000 0.000000 0.000000
25.000000 1.329693 -8.395350 1.000000 -0.000000 0.000000
25.000000 0.553610 -5.974405 1.000000 -0.000000 0.000000
25.000000 -8.395350 1.329693 1.000000 0.000000 0.000000
25.000000 -6.000000 0.000000 1.000000 0.000000 0.000000
25.000000 -8.500000 0.000000 1.000000 0.000000 0.000000
25.000000 -0.000000 -8.500000 1.000000 -0.000000 0.000000
25.000000 -0.553610 -5.974405 1.000000 -0.000000 0.000000
25.000000 -8.395350 -1.329693 1.000000 0.000000 0.000000
25.000000 -5.897839 -1.102497 1.000000 0.000000 0.000000
25.000000 -1.329693 -8.395350 1.000000 0.000000 0.000000
25.000000 -1.641978 -5.770954 1.000000 0.000000 0.000000
25.000000 -8.083981 -2.626644 1.000000 0.000000 0.000000
25.000000 -5.594833 -2.167450 1.000000 0.000000 0.000000
25.000000 -2.626644 -8.083981 1.000000 0.000000 0.000000
25.000000 -2.674430 -5.370980 1.000000 0.000000 0.000000
25.000000 -7.573555 -3.858919 1.000000 -0.000000 0.000000
25.000000 -5.101303 -3.158593 1.000000 0.000000 0.000000
25.000000 -3.858919 -7.573555 1.000000 0.000000 0.000000
25.000000 -6.876645 -4.996175 1.000000 0.000000 0.000000
25.000000 -4.434053 -4.042174 1.000000 0.000000 0.000000
25.000000 -4.996175 -6.876645 1.000000 0.000000 0.000000
25.000000 -3.615808 -4.788104 1.000000 0.000000 0.000000
25.000000 -6.010407 -6.010407 1.000000 -0.000000 0.000000
-25.000000 6.000000 0.000000 -0.000000 -0.995734 -0.092268
25.000000 6.000000 0.000000 -0.000000 -0.995734 -0.092268
-25.000000 5.897839 1.102497 -0.000000 -0.995734 -0.092268
-25.000000 5.897839 1.102497 -0.000000 -0.961826 -0.273663
25.000000 5.897839 1.102497 -0.000000 -0.961826 -0.273663
-25.000000 5.594833 2.167450 -0.000000 -0.961826 -0.273663
25.000000 5.897839 1.102497 0.000000 -0.995734 -0.092268
25.000000 5.594833 2.167450 0.000000 -0.961826 -0.273663
-25.000000 5.594833 2.167450 0.000000 -0.895163 -0.445738
25.000000 5.101303 3.158593 0.000000 -0.895163 -0.445738
-25.000000 5.101303 3.158593 0.000000 -0.895163 -0.445738
25.000000 5.594833 2.167450 0.000000 -0.895163 -0.445738
-25.000000 4.434053 4.042174 -0.000000 -0.673696 -0.739009
25.000000 4.434053 4.042174 -0.000000 -0.673696 -0.739009
-25.000000 3.615808 4.788104 -0.000000 -0.673696 -0.739009
-25.000000 5.101303 3.158593 0.000000 -0.798017 -0.602635
25.000000 4.434053 4.042174 0.000000 -0.798017 -0.602635
-25.000000 4.434053 4.042174 0.000000 -0.798017 -0.602635
25.000000 5.101303 3.158593 0.000000 -0.798017 -0.602635
25.000000 3.615808 4.788104 0.000000 -0.673696 -0.739009
-25.000000 2.674430 5.370980 -0.000000 -0.361241 -0.932472
25.000000 2.674430 5.370980 -0.000000 -0.361241 -0.932472
-25.000000 1.641978 5.770954 -0.000000 -0.361241 -0.932472
-25.000000 3.615808 4.788104 0.000000 -0.526432 -0.850217
25.000000 2.674430 5.370980 0.000000 -0.526432 -0.850217
-25.000000 2.674430 5.370980 0.000000 -0.526432 -0.850217
25.000000 3.615808 4.788104 0.000000 -0.526432 -0.850217
25.000000 1.641978 5.770954 0.000000 -0.361241 -0.932472
-25.000000 0.553610 5.974405 0.000000 0.000000 -1.000000
25.000000 0.553610 5.974405 0.000000 0.000000 -1.000000
-25.000000 -0.553610 5.974405 0.000000 0.000000 -1.000000
-25.000000 1.641978 5.770954 0.000000 -0.183750 -0.982973
25.000000 0.553610 5.974405 0.000000 -0.183750 -0.982973
-25.000000 0.553610 5.974405 0.000000 -0.183750 -0.982973
25.000000 1.641978 5.770954 0.000000 -0.183750 -0.982973
25.000000 -0.553610 5.974405 0.000000 0.000000 -1.000000
-25.000000 -1.641978 5.770954 0.000000 0.361241 -0.932472
25.000000 -1.641978 5.770954 0.000000 0.361241 -0.932472
-25.000000 -2.674430 5.370980 0.000000 0.361241 -0.932472
-25.000000 -0.553610 5.974405 0.000000 0.183750 -0.982973
25.000000 -1.641978 5.770954 0.000000 0.183750 -0.982973
-25.000000 -1.641978 5.770954 0.000000 0.183750 -0.982973
25.000000 -0.553610 5.974405 0.000000 0.183750 -0.982973
25.000000 -2.674430 5.370980 0.000000 0.361241 -0.932472
-25.000000 -2.674430 5.370980 0.000000 0.526432 -0.850217
25.000000 -3.615808 4.788104 0.000000 0.526432 -0.850217
-25.000000 -3.615808 4.788104 0.000000 0.526432 -0.850217
25.000000 -2.674430 5.370980 0.000000 0.526432 -0.850217
-25.000000 -3.615808 4.788104 0.000000 0.673696 -0.739009
25.000000 -4.434053 4.042174 0.000000 0.673696 -0.739009
-25.000000 -4.434053 4.042174 0.000000 0.673696 -0.739009
25.000000 -3.615808 4.788104 0.000000 0.673696 -0.739009
-25.000000 -4.434053 4.042174 0.000000 0.798017 -0.602635
25.000000 -5.101303 3.158593 0.000000 0.798017 -0.602635
-25.000000 -5.101303 3.158593 0.000000 0.798017 -0.602635
25.000000 -4.434053 4.042174 0.000000 0.798017 -0.602635
-25.000000 -5.594833 2.167450 0.000000 0.961826 -0.273663
25.000000 -5.594833 2.167450 0.000000 0.961826 -0.273663
-25.000000 -5.897839 1.102497 0.000000 0.961826 -0.273663
-25.000000 -5.101303 3.158593 0.000000 0.895163 -0.445738
25.000000 -5.594833 2.167450 0.000000 0.895163 -0.445738
-25.000000 -5.594833 2.167450 0.000000 0.895163 -0.445738
25.000000 -5.101303 3.158593 0.000000 0.895163 -0.445738
25.000000 -5.897839 1.102497 0.000000 0.961826 -0.273663
-25.000000 -5.897839 1.102497 0.000000 0.995734 -0.092268
25.000000 -6.000000 0.000000 0.000000 0.995734 -0.092268
-25.000000 -6.000000 0.000000 0.000000 0.995734 -0.092268
25.000000 -5.897839 1.102497 0.000000 0.995734 -0.092268
-25.000000 -6.000000 0.000000 0.000000 0.995734 0.092268
25.000000 -6.000000 0.000000 0.000000 0.995734 0.092268
-25.000000 -5.897839 -1.102497 0.000000 0.995734 0.092268
-25.000000 -5.897839 -1.102497 0.000000 0.961826 0.273663
25.000000 -5.897839 -1.102497 0.000000 0.961826 0.273663
-25.000000 -5.594833 -2.167450 0.000000 0.961826 0.273663
25.000000 -5.897839 -1.102497 -0.000000 0.995734 0.092268
25.000000 -5.594833 -2.167450 -0.000000 0.961826 0.273663
-25.000000 -5.594833 -2.167450 -0.000000 0.895163 0.445738
25.000000 -5.101303 -3.158593 -0.000000 0.895163 0.445738
-25.000000 -5.101303 -3.158593 -0.000000 0.895163 0.445738
25.000000 -5.594833 -2.167450 0.000000 0.895163 0.445738
-25.000000 -5.101303 -3.158593 -0.000000 0.798017 0.602635
25.000000 -4.434053 -4.042174 -0.000000 0.798017 0.602635
-25.000000 -4.434053 -4.042174 -0.000000 0.798017 0.602635
25.000000 -5.101303 -3.158593 0.000000 0.798017 0.602635
-25.000000 -3.615808 -4.788104 0.000000 0.526432 0.850217
25.000000 -3.615808 -4.788104 0.000000 0.526432 0.850217
-25.000000 -2.674430 -5.370980 0.000000 0.526432 0.850217
-25.000000 -4.434053 -4.042174 -0.000000 0.673696 0.739009
25.000000 -3.615808 -4.788104 -0.000000 0.673696 0.739009
-25.000000 -3.615808 -4.788104 -0.000000 0.673696 0.739009
25.000000 -4.434053 -4.042174 0.000000 0.673696 0.739009
-25.000000 -2.674430 -5.370980 0.000000 0.361241 0.932472
25.000000 -2.674430 -5.370980 0.000000 0.361241 0.932472
-25.000000 -1.641978 -5.770954 0.000000 0.361241 0.932472
25.000000 -2.674430 -5.370980 -0.000000 0.526432 0.850217
25.000000 -1.641978 -5.770954 -0.000000 0.361241 0.932472
-25.000000 -0.553610 -5.974405 0.000000 0.000000 1.000000
25.000000 -0.553610 -5.974405 0.000000 0.000000 1.000000
-25.000000 0.553610 -5.974405 0.000000 0.000000 1.000000
-25.000000 -1.641978 -5.770954 -0.000000 0.183750 0.982973
25.000000 -0.553610 -5.974405 -0.000000 0.183750 0.982973
-25.000000 -0.553610 -5.974405 -0.000000 0.183750 0.982973
25.000000 -1.641978 -5.770954 0.000000 0.183750 0.982973
25.000000 0.553610 -5.974405 -0.000000 0.000000 1.000000
-25.000000 0.553610 -5.974405 0.000000 -0.183750 0.982973
25.000000 1.641978 -5.770954 0.000000 -0.183750 0.982973
-25.000000 1.641978 -5.770954 0.000000 -0.183750 0.982973
25.000000 0.553610 -5.974405 0.000000 -0.183750 0.982973
-25.000000 1.641978 -5.770954 0.000000 -0.361241 0.932472
25.000000 2.674430 -5.370980 0.000000 -0.361241 0.932472
-25.000000 2.674430 -5.370980 0.000000 -0.361241 0.932472
25.000000 1.641978 -5.770954 0.000000 -0.361241 0.932472
-25.000000 2.674430 -5.370980 0.000000 -0.526432 0.850217
25.000000 3.615808 -4.788104 0.000000 -0.526432 0.850217
-25.000000 3.615808 -4.788104 0.000000 -0.526432 0.850217
25.000000 2.674430 -5.370980 0.000000 -0.526432 0.850217
-25.000000 3.615808 -4.788104 0.000000 -0.673696 0.739009
25.000000 4.434053 -4.042174 0.000000 -0.673696 0.739009
-25.000000 4.434053 -4.042174 0.000000 -0.673696 0.739009
25.000000 3.615808 -4.788104 0.000000 -0.673696 0.739009
-25.000000 4.434053 -4.042174 0.000000 -0.798017 0.602635
25.000000 5.101303 -3.158593 0.000000 -0.798017 0.602635
-25.000000 5.101303 -3.158593 0.000000 -0.798017 0.602635
25.000000 4.434053 -4.042174 0.000000 -0.798017 0.602635
-25.000000 5.594833 -2.167450 0.000000 -0.961826 0.273663
25.000000 5.594833 -2.167450 0.000000 -0.961826 0.273663
-25.000000 5.897839 -1.102497 0.000000 -0.961826 0.273663
-25.000000 5.101303 -3.158593 0.000000 -0.895163 0.445738
25.000000 5.594833 -2.167450 0.000000 -0.895163 0.445738
-25.000000 5.594833 -2.167450 0.000000 -0.895163 0.445738
25.000000 5.101303 -3.158593 0.000000 -0.895163 0.445738
25.000000 5.897839 -1.102497 0.000000 -0.961826 0.273663
-25.000000 5.897839 -1.102497 0.000000 -0.995734 0.092268
25.000000 6.000000 0.000000 0.000000 -0.995734 0.092268
-25.000000 6.000000 0.000000 0.000000 -0.995734 0.092268
25.000000 5.897839 -1.102497 0.000000 -0.995734 0.092268
3 0 1 2
3 2 3 4
3 1 3 2
3 5 6 0
3 0 6 1
3 4 7 8
3 8 7 9
3 3 7 4
3 5 10 6
3 11 10 5
3 7 12 9
3 9 12 13
3 14 15 11
3 11 15 10
3 13 16 17
3 12 16 13
3 14 18 15
3 19 18 20
3 20 18 14
3 16 21 17
3 17 21 22
3 19 23 18
3 24 23 19
3 21 25 22
3 22 25 26
3 27 28 24
3 24 28 23
3 25 29 26
3 26 29 30
3 27 31 28
3 29 32 30
3 27 33 31
3 29 34 32
3 33 35 31
3 34 36 32
3 33 37 35
3 34 38 36
3 37 39 35
3 38 40 36
3 37 41 39
3 38 42 40
3 41 43 39
3 44 45 42
3 42 45 40
3 41 46 43
3 47 48 44
3 44 48 45
3 43 49 50
3 46 49 43
3 51 52 47
3 47 52 48
3 50 53 54
3 49 53 50
3 54 55 56
3 53 55 54
3 51 57 52
3 51 58 57
3 59 58 51
3 56 60 61
3 55 60 56
3 60 62 61
3 61 62 63
3 59 64 58
3 65 64 59
3 65 66 64
3 67 66 65
3 62 68 63
3 67 69 66
3 70 69 67
3 68 71 63
3 63 71 72
3 70 73 69
3 71 73 72
3 72 73 70
3 74 75 76
3 74 76 77
3 78 79 80
3 81 82 83
3 78 84 79
3 85 81 83
3 86 87 88
3 86 89 87
3 90 91 92
3 90 93 91
3 94 95 96
3 94 97 95
3 98 99 100
3 101 102 103
3 98 104 99
3 105 106 107
3 108 101 103
3 109 105 107
3 110 111 112
3 110 113 111
3 114 115 116
3 114 117 115
3 118 119 120
3 121 122 123
3 118 124 119
3 125 121 123
3 126 127 128
3 126 128 129
3 130 131 132
3 130 132 133
3 134 135 136
3 137 134 136
3 138 139 140
3 141 138 140
3 142 143 144
3 145 142 144
3 146 147 148
3 146 148 149
3 150 151 152
3 153 150 152
3 154 155 156
3 154 156 157
3 158 159 160
3 161 162 163
3 158 164 159
3 165 161 163
3 166 167 168
3 166 169 167
3 170 171 172
3 170 173 171
3 174 175 176
3 174 177 175
3 178 179 180
3 181 182 183
3 178 184 179
3 185 186 187
3 188 181 183
3 189 185 187
3 190 191 192
3 190 193 191
3 194 195 196
3 194 197 195
3 198 199 200
3 201 202 203
3 198 204 199
3 205 201 203
3 206 207 208
3 206 208 209
3 210 211 212
3 210 212 213
3 214 215 216
3 217 214 216
3 218 219 220
3 221 218 220
3 222 223 224
3 225 222 224
3 226 227 228
3 226 228 229
3 230 231 232
3 233 230 232
3 234 235 236
3 237 236 238
3 237 234 236
3 239 240 235
3 239 235 234
3 241 238 242
3 241 242 243
3 241 237 238
3 244 245 240
3 244 240 239
3 246 241 243
3 246 243 247
3 248 249 245
3 248 245 244
3 250 247 251
3 250 246 247
3 252 253 249
3 252 254 253
3 252 249 248
3 255 251 256
3 255 250 251
3 257 254 252
3 257 258 254
3 259 255 256
3 259 256 260
3 261 258 257
3 261 262 258
3 263 260 264
3 263 259 260
3 265 262 261
3 266 262 265
3 267 263 264
3 268 263 267
3 269 266 265
3 270 268 267
3 271 266 269
3 272 268 270
3 273 271 269
3 274 272 270
3 275 271 273
3 276 272 274
3 277 275 273
3 278 275 277
3 279 276 274
3 279 280 276
3 281 277 282
3 281 278 277
3 283 284 280
3 283 280 279
3 285 282 286
3 285 281 282
3 287 288 284
3 287 284 283
3 289 288 287
3 290 286 291
3 290 285 286
3 292 293 288
3 292 288 289
3 294 291 295
3 294 290 291
3 296 297 293
3 296 293 292
3 298 294 295
3 298 295 299
3 300 297 296
3 300 301 297
3 302 298 299
3 303 304 301
3 303 301 300
3 305 302 299
3 305 299 306
3 307 304 303
3 307 305 306
3 307 306 304
3 308 309 310
3 311 312 313
3 309 314 310
3 312 315 313
3 316 317 318
3 319 317 316
3 320 321 322
3 323 324 325
3 326 324 323
3 321 327 322
3 328 329 330
3 331 332 333
3 334 332 331
3 329 335 330
3 336 337 338
3 339 340 341
3 342 340 339
3 337 343 338
3 344 345 346
3 347 348 349
3 350 348 347
3 345 351 346
3 352 353 354
3 355 353 352
3 356 357 358
3 359 357 356
3 360 361 362
3 363 361 360
3 364 365 366
3 367 368 369
3 370 368 367
3 365 371 366
3 372 373 374
3 375 373 372
3 376 377 378
3 379 380 381
3 377 382 378
3 380 383 381
3 384 385 386
3 387 385 384
3 388 389 390
3 391 389 388
3 392 393 394
3 395 396 397
3 398 396 395
3 399 400 401
3 393 402 394
3 400 403 401
3 404 405 406
3 407 408 409
3 410 408 407
3 405 411 406
3 412 413 414
3 415 413 412
3 416 417 418
3 419 417 416
3 420 421 422
3 423 421 420
3 424 425 426
3 427 425 424
3 428 429 430
3 431 429 428
3 432 433 434
3 435 436 437
3 438 436 435
3 433 439 434
3 440 441 442
3 443 441 440
